<?xml version="1.0" standalone="no"?>
<!DOCTYPE svg PUBLIC "-//W3C//DTD SVG 20010904//EN"
 "http://www.w3.org/TR/2001/REC-SVG-20010904/DTD/svg10.dtd">
<svg version="1.0" xmlns="http://www.w3.org/2000/svg"
 width="700.000000pt" height="700.000000pt" viewBox="0 0 700.000000 700.000000"
 preserveAspectRatio="xMidYMid meet">
<metadata>
Created by potrace 1.11, written by Peter Selinger 2001-2013
</metadata>
<g transform="translate(0.000000,700.000000) scale(0.100000,-0.100000)"
fill="#000000" stroke="none">
<path d="M3298 6995 c-1 -1 -48 -6 -102 -9 -55 -4 -102 -9 -105 -10 -3 -2 -37
-7 -76 -11 -38 -4 -72 -8 -75 -10 -3 -2 -23 -6 -45 -9 -38 -6 -60 -10 -115
-22 -14 -3 -36 -7 -50 -10 -43 -8 -241 -64 -330 -94 -422 -140 -847 -384
-1190 -685 -66 -58 -267 -261 -326 -330 -143 -166 -292 -376 -398 -561 -57
-100 -186 -368 -186 -386 0 -8 -4 -18 -9 -23 -11 -11 -69 -176 -111 -315 -30
-99 -82 -318 -95 -405 -5 -27 -9 -54 -10 -60 -1 -5 -5 -37 -9 -70 -3 -33 -8
-70 -10 -82 -7 -34 -19 -258 -19 -353 0 -93 13 -372 18 -380 2 -3 6 -37 10
-75 3 -39 8 -77 10 -85 3 -8 7 -33 11 -55 30 -202 111 -489 204 -720 192 -482
544 -974 931 -1305 35 -30 70 -61 78 -68 31 -29 268 -203 309 -227 10 -5 47
-28 82 -51 437 -276 990 -457 1535 -501 167 -13 636 -5 665 12 3 1 36 6 73 10
37 3 78 8 90 11 12 2 36 7 52 10 17 3 62 12 100 20 39 8 81 17 95 20 109 21
356 101 518 168 112 45 342 155 352 167 3 3 21 14 40 24 69 35 257 159 370
243 482 361 867 852 1105 1407 42 99 112 292 135 370 28 98 42 152 46 175 3
14 10 45 16 70 6 25 12 55 13 67 2 12 6 34 9 50 13 61 19 95 31 193 3 25 8 61
10 80 7 49 19 283 19 360 0 60 -12 292 -18 350 -10 96 -35 254 -61 381 -12 64
-67 262 -94 344 -114 346 -306 714 -521 1000 -189 250 -420 482 -665 670 -88
68 -318 225 -329 225 -2 0 -33 17 -67 38 -96 58 -397 202 -422 202 -7 0 -17 3
-21 7 -17 17 -290 106 -439 142 -119 29 -306 63 -417 76 -30 4 -68 8 -85 11
-35 5 -522 14 -527 9z"/>
</g>
</svg>
