<?xml version="1.0" encoding="UTF-8" standalone="no"?>
<!DOCTYPE svg PUBLIC "-//W3C//DTD SVG 1.1//EN" "http://www.w3.org/Graphics/SVG/1.1/DTD/svg11.dtd">
<svg width="100%" height="100%" viewBox="0 0 512 512" version="1.1" xmlns="http://www.w3.org/2000/svg" xmlns:xlink="http://www.w3.org/1999/xlink" xml:space="preserve" style="fill-rule:evenodd;clip-rule:evenodd;stroke-linejoin:round;stroke-miterlimit:1.41421;">
    <path d="M509.361,253.361C509.361,393.288 395.927,506.722 256,506.722C116.073,506.722 2.639,393.288 2.639,253.361C2.639,113.434 116.073,0 256,0C395.927,0 509.361,113.434 509.361,253.361Z" style="fill:rgb(47,184,236);fill-rule:nonzero;"/>
    <path d="M375.291,182.631C367.901,172.602 356.816,165.74 344.676,164.685C343.621,152.544 336.759,141.46 326.73,134.07C312.478,124.041 293.476,124.041 279.225,133.542C260.75,145.682 254.944,169.963 265.501,188.965C266.029,189.493 266.029,190.548 265.501,191.076L193.715,262.862C193.188,263.39 192.66,263.39 191.604,262.862C172.602,252.305 148.322,258.111 136.181,276.586C126.68,290.837 126.68,309.839 136.709,324.091C144.099,334.12 155.184,340.981 167.324,342.037C168.379,354.177 175.241,365.262 185.27,372.652C192.66,377.93 201.105,380.041 209.551,380.041C217.468,380.041 225.913,377.93 232.775,373.179C251.249,361.039 257.056,336.759 246.499,317.757C245.971,317.229 245.971,316.173 246.499,315.645L318.285,243.86C318.812,243.332 319.34,243.332 320.396,243.86C339.398,254.416 363.678,248.61 375.819,230.136C385.32,215.885 384.792,196.882 375.291,182.631Z" style="fill:white;fill-rule:nonzero;"/>
</svg>
