<?xml version="1.0" ?><svg id="Layer_1" style="enable-background:new 0 0 96 96;" version="1.1" viewBox="0 0 96 96" xml:space="preserve" xmlns="http://www.w3.org/2000/svg" xmlns:xlink="http://www.w3.org/1999/xlink"><style type="text/css">
	.st0{fill:#6B727B;}
	.st1{fill:#ECE6DE;}
	.st2{opacity:0.5;fill:#939598;enable-background:new    ;}
</style><g><circle class="st0" cx="48" cy="48" r="48"/><g><path class="st1" d="M66.8,17.7c-3.2-2.4-7.8-2.3-10.9,0.1c-3.5,2.7-4.5,7.3-2.9,11c0.7,1.5,0.4,3.3-0.8,4.5l-8.5,8.5L33.3,52.2    c-1.2,1.2-3,1.5-4.5,0.8c-3.7-1.6-8.3-0.7-11,2.9c-2.4,3.2-2.5,7.7-0.1,10.90001c1.9,2.6,4.8,3.9,7.7,3.8    c-0.1,2.9,1.2,5.8,3.8,7.7c3.2,2.4,7.8,2.3,10.9-0.1c3.5-2.7,4.5-7.3,2.9-11c-0.7-1.5-0.4-3.3,0.8-4.5l10.4-10.4l8.5-8.5    c1.2-1.2,3-1.5,4.5-0.8c3.7,1.6,8.3,0.7,11-2.9c2.4-3.2,2.5-7.7,0.1-10.9c-1.9-2.6-4.8-3.9-7.7-3.8C70.7,22.6,69.4,19.7,66.8,17.7    z"/><path class="st2" d="M25.4,70.6c0,1.2,0.2,2.4,0.6,3.5l0,0c4.6-0.4,8.2-4.3,8.2-9.1c0-0.6-0.1-1.2-0.2-1.8    C33.2,67.4,29.9,70.6,25.4,70.6z"/><path class="st2" d="M70.6,25.4c1.2,0,2.4,0.2,3.5,0.6l0,0c-0.4,4.6-4.3,8.2-9.1,8.2c-0.6,0-1.2-0.1-1.8-0.2    C67.4,33.2,70.6,29.9,70.6,25.4z"/></g></g></svg>