<?xml version="1.0" encoding="UTF-8" standalone="no"?>
<!DOCTYPE svg PUBLIC "-//W3C//DTD SVG 1.1//EN" "http://www.w3.org/Graphics/SVG/1.1/DTD/svg11.dtd">
<svg width="100%" height="100%" viewBox="0 0 88 129" version="1.1" xmlns="http://www.w3.org/2000/svg" xmlns:xlink="http://www.w3.org/1999/xlink" xml:space="preserve" style="fill-rule:evenodd;clip-rule:evenodd;stroke-linejoin:round;stroke-miterlimit:1.41421;">
    <g transform="matrix(1,0,0,1,-149.463,-445.223)">
        <path d="M225.091,508.146C223.337,508.605 221.532,508.961 219.728,509.114C217.818,509.275 215.885,509.15 213.961,509.15L177.421,509.15C175.819,509.15 174.2,509.29 172.618,509.111C170.947,508.923 169.289,509.625 167.543,508.576C166.354,507.862 164.572,508.135 163.055,507.967C163.117,507.72 163.18,507.473 163.242,507.226L169.407,507.226C183.83,507.226 198.254,507.265 212.678,507.195C215.761,507.18 218.857,507.635 221.939,506.37C223.428,505.759 225.376,506.265 228.308,506.265C226.649,507.26 225.929,507.927 225.091,508.146M205.225,541.494C205.989,543.945 206.073,546.639 206.236,549.238C206.395,551.79 206.323,554.361 206.247,556.921C206.211,558.117 206.822,559.509 205.474,560.434C205.3,564.954 201.849,566.752 198.625,568.798C197.222,569.689 195.736,570.005 194.211,569.704C190.397,568.954 186.797,567.499 183.458,565.559C182.388,564.937 180.92,564.01 181.267,562.2C178.093,557.335 179.297,551.856 179.507,546.671C179.634,543.533 181.328,540.445 182.402,537.363C183.474,534.288 184.657,531.253 185.774,528.193C185.927,527.774 186.059,527.317 186.062,526.877C186.096,522.353 187.849,517.965 186.826,513.138L200.5,513.138C200.5,515.971 200.636,518.676 200.465,521.361C200.265,524.508 201.436,527.367 201.924,530.364C202.555,534.248 204.072,537.799 205.225,541.494M236.386,501.162C235.894,500.586 235.754,499.088 236.157,498.48C237.52,496.428 236.986,494.23 237.018,492.098C237.098,486.65 237.044,481.201 237.044,475.752C237.044,471.585 237.297,467.398 236.963,463.258C236.704,460.049 235.492,456.814 232.328,455.385C229.64,454.171 226.602,453.733 223.889,452.997C222.163,450.765 224.011,447.004 220.839,445.645C218.035,446.809 217.745,448.797 217.765,451.211C217.865,463.069 217.811,474.929 217.811,486.788C217.811,489.512 217.845,492.237 217.798,494.961C217.769,496.736 218.601,497.58 220.334,497.608C220.964,497.618 221.593,497.61 222.619,497.61C222.619,495.431 222.646,493.675 222.612,491.92C222.576,490.06 223.226,488.298 223.445,486.532C223.896,482.901 223.581,479.176 223.581,475.489L223.581,456.767C225.154,457.363 226.212,458.04 227.314,458.122C229.298,458.269 231.156,458.92 232.028,460.531C232.851,462.054 233.131,464.025 233.149,465.804C233.25,475.578 233.17,485.355 233.22,495.131C233.23,497.113 232.504,498.683 231.21,500.076C230.45,500.895 229.68,501.705 229.01,502.418C206.539,502.418 184.262,502.369 161.987,502.498C159.88,502.51 158.154,501.451 156.137,501.384C155.523,501.364 154.568,500.585 154.408,499.984C153.902,498.083 153.444,496.104 153.422,494.15C153.321,485.337 153.414,476.522 153.354,467.708C153.338,465.377 154.235,463.589 155.809,461.977C157.451,460.296 159.261,461.333 161.071,461.129L161.071,482.157C161.071,486.324 161.041,490.491 161.084,494.658C161.106,496.793 161.669,497.362 163.773,497.599C164.378,497.667 164.997,497.61 165.88,497.61C165.88,495.201 165.755,492.982 165.916,490.784C166.071,488.661 166.777,486.562 166.798,484.448C166.895,474.353 166.913,464.255 166.789,454.16C166.76,451.749 166.17,449.326 165.636,446.954C165.502,446.359 164.587,445.939 163.792,445.223C162.82,446.43 162.038,447.4 160.865,448.857L160.865,458.005C158.867,458.649 157.054,457.811 155.13,458.704C150.839,460.694 149.752,464.512 149.634,468.396C149.328,478.483 149.52,488.586 149.549,498.682C149.552,499.586 149.648,500.554 149.977,501.383C151.465,505.128 156.097,509.709 160.031,511.477C160.437,511.659 160.844,512.02 161.242,512.008C165.315,511.896 169.211,513.566 173.351,513.05C175.718,512.755 178.154,512.945 180.556,513.013C182.485,513.067 182.511,513.242 182.249,515.619C182.127,516.728 182.247,517.861 182.224,518.982C182.189,520.725 182.33,522.503 182.024,524.199C181.655,526.238 180.976,528.235 180.283,530.198C179.539,532.307 177.921,534.14 178.337,536.602C176.414,539.44 176.161,542.768 175.261,545.935C174.304,549.299 174.95,552.476 174.548,555.702C174.107,559.236 176.592,561.91 177.465,565.07C178.237,567.867 180.286,569.672 182.995,570.696C185.087,571.488 186.922,573.145 189.409,572.621C191.793,574.623 194.595,573.278 197.189,573.536C200.369,573.852 202.157,571.414 204.134,569.468C204.362,569.243 204.565,568.847 204.817,568.814C207.683,568.431 208.346,565.679 208.976,563.875C210.102,560.649 211.428,557.303 211.108,553.674C210.941,551.766 211.223,549.817 211.044,547.911C210.801,545.332 210.923,542.451 209.776,540.291C208.191,537.307 207.463,534.14 206.599,531.023C204.998,525.248 203.494,519.39 204.606,512.996C210.435,512.996 216.327,512.999 222.219,512.994C223.173,512.993 224.655,513.34 224.991,512.875C226.608,510.633 229.503,511.121 231.373,509.55C232.784,508.366 234.612,507.512 235.624,506.069C236.519,504.794 238.124,503.196 236.386,501.162" style="fill-rule:nonzero;"/>
    </g>
</svg>
