<?xml version="1.0" encoding="UTF-8" standalone="no"?>
<!DOCTYPE svg PUBLIC "-//W3C//DTD SVG 1.1//EN" "http://www.w3.org/Graphics/SVG/1.1/DTD/svg11.dtd">
<svg width="100%" height="100%" viewBox="0 0 149 113" version="1.1" xmlns="http://www.w3.org/2000/svg" xmlns:xlink="http://www.w3.org/1999/xlink" xml:space="preserve" style="fill-rule:evenodd;clip-rule:evenodd;stroke-linejoin:round;stroke-miterlimit:1.41421;">
    <g transform="matrix(1,0,0,1,-522.991,-283.572)">
        <path d="M664.981,351.887C659.004,351.887 653.235,351.901 647.466,351.882C643.407,351.87 643.407,351.85 643.241,347.079C650.467,347.079 657.339,347.121 664.209,347.044C665.65,347.028 666.599,347.509 667.487,348.957C666.663,349.92 665.781,350.952 664.981,351.887M657.675,363.468C653.362,363.295 649.037,363.427 644.308,363.427L644.308,355.886L663.262,355.886C663.851,356.811 664.583,357.961 665.226,358.971C663.969,362.601 661.257,363.611 657.675,363.468M642.192,391.082L552.175,391.082C548.917,381.263 551.553,380.755 542.203,367.622C544.962,367.287 547.623,366.964 550.774,366.582C552.286,367.368 553.159,369.559 554.931,370.974C557.488,373.015 560.164,371.984 562.676,371.889C563.853,371.844 564.952,369.731 566.351,368.28C570.728,369.931 575.799,369.131 580.797,369.165C594.575,369.259 608.355,369.21 622.133,369.18C623.644,369.177 625.197,369.547 626.617,368.323C627.036,367.962 628.771,367.558 628.948,369.581C629.024,370.449 630.366,371.206 631.258,372.145C633.715,371.548 636.338,372.851 638.951,371.233C641.072,369.919 641.863,367.447 643.321,366.653C646.558,366.991 649.125,367.259 652.149,367.575C646.043,374.291 643.928,382.474 642.192,391.082M534.567,363.406C531.671,363.363 529.976,361.542 528.997,359.126C529.256,358.595 529.532,358.066 529.776,357.523C530.339,356.266 531.197,355.682 532.674,355.703C538.273,355.78 543.873,355.734 549.887,355.734L549.887,363.427C544.726,363.427 539.646,363.481 534.567,363.406M526.769,349.347C527.284,347.658 528.12,347.043 529.626,347.055C536.646,347.109 543.666,347.079 550.936,347.079C550.936,348.071 551.016,348.849 550.918,349.603C550.741,350.967 550.068,351.891 548.527,351.89C542.438,351.883 536.348,351.885 530.259,351.888C528.325,351.889 527.899,350.125 526.769,349.347M563.753,361.718C563.435,362.371 563.694,363.295 563.404,363.973C562.82,365.334 562.268,366.84 561.26,367.84C560.649,368.446 559.209,368.215 558.257,368.344C557.215,367.302 556.188,366.484 555.438,365.464C554.745,364.522 554.014,363.405 553.878,362.294C553.226,356.985 554.275,351.821 555.819,346.784C556.145,345.718 557.423,344.944 558.298,343.998C562.253,345.905 563.57,349.322 564.186,352.416C564.763,355.313 565.236,358.669 563.753,361.718M627.086,365.489C624.246,364.964 621.764,366.151 619.405,364.458C618.77,364.002 617.531,364.389 616.57,364.389C603.588,364.389 590.607,364.369 577.626,364.419C576.289,364.425 575.016,364.427 573.572,365.06C571.863,365.81 569.573,365.237 567.148,365.237C567.605,362.401 568.035,359.732 568.497,356.865L625.697,356.865C626.158,359.731 626.588,362.399 627.086,365.489M625.524,352.68L568.705,352.68C567.833,350.496 567.064,348.569 566.294,346.639C570.257,345.894 613.601,345.648 627.967,346.305C627.159,348.414 626.388,350.426 625.524,352.68M640.297,362.377C640.263,363.449 639.403,364.582 638.702,365.521C637.945,366.533 636.928,367.352 636.272,368.008C633.245,369.05 631.815,367.531 631.122,365.201C629.567,359.969 628.877,354.605 630.958,349.412C631.775,347.371 633.643,345.751 635.178,343.75C637.454,345.269 638.024,346.85 638.745,348.64C640.563,353.15 640.444,357.749 640.297,362.377M547.186,323.02C549.573,319.369 550.999,315.228 553.688,311.72C554.775,310.301 555.478,309.497 557.219,309.552C559.777,309.633 562.339,309.573 564.9,309.573C588.586,309.573 612.271,309.574 635.957,309.571C637.989,309.57 640.208,309.205 640.561,312.166C643.674,315.36 644.545,319.854 647.089,323.39C650.592,328.261 653.009,333.805 656.474,338.712C657.316,339.904 657.76,341.376 658.509,342.983C657.595,343.062 656.612,343.213 655.628,343.22C651.788,343.249 647.945,343.156 644.106,343.259C641.687,343.325 639.536,342.899 637.775,341.123C636.438,339.774 634.96,339.961 633.548,340.943C631.807,342.154 629.896,342.297 627.853,342.294C607.368,342.255 586.883,342.258 566.398,342.289C564.364,342.293 562.416,342.259 560.689,340.978C559.063,339.772 557.544,339.935 556.106,341.408C554.612,342.938 552.709,343.282 550.625,343.254C545.692,343.186 540.757,343.232 535.361,343.232C539.469,336.13 543.028,329.38 547.186,323.02M614.866,305.543L579.552,305.543C582.909,298.283 589.327,295.771 595.954,295.378C603.518,294.929 610.366,297.773 614.866,305.543M579.124,292.613C582.698,290.355 586.93,289.139 590.866,287.454C597.325,287.507 603.888,286.712 609.896,290.127C612.469,291.589 615.396,292.532 617.728,294.288C620.463,296.346 622.571,299.098 622.114,302.967C622.022,303.744 622.1,304.541 622.1,305.697L617.7,305.697C617.583,305.379 617.381,304.992 617.301,304.581C616.416,300.077 613.607,297.125 609.637,295.159C606.54,293.626 603.459,292.321 599.816,292.177C592.26,291.877 586.718,293.035 581.118,297.252C578.484,299.236 577.277,302.24 576.665,305.592L572.472,305.592C572.372,305.404 572.136,305.152 572.107,304.878C571.499,299.047 572.904,296.544 579.124,292.613M668.405,343.948C667.356,342.371 665.438,343.306 663.937,343.296C662.721,343.288 662.086,342.574 661.66,341.851C659.924,338.906 658.314,335.884 656.735,332.85C655.702,330.866 654.844,328.837 653.544,326.948C650.921,323.138 648.467,319.164 646.418,315.023C644.696,311.542 642.726,308.363 639.7,305.56L625.655,305.56C627.369,298.699 623.455,294.365 618.905,290.652C615.936,288.228 612.281,286.666 608.559,285.564C605.832,284.756 603.041,283.902 600.233,283.695C596.69,283.434 593.15,283.546 589.566,284.477C582.511,286.311 576.011,288.949 571.213,294.651C569.468,296.725 568.073,299.111 568.235,302.053C568.302,303.269 568.246,304.492 568.246,305.716L554.255,305.716C553.079,307.268 551.64,308.614 550.459,310.295C548.877,312.548 547.992,315.098 546.517,317.346C542.908,322.85 539.6,328.527 536.5,334.332C534.881,337.364 533.155,340.34 531.539,343.232C529.971,343.232 528.68,343.121 527.421,343.276C526.727,343.361 525.714,343.729 525.488,344.249C524.486,346.558 522.389,348.528 523.156,351.507C524.294,352.645 525.539,353.89 526.783,355.133C526.11,356.592 524.442,357.974 525.07,359.539C525.959,361.757 525.839,364.973 529.325,365.378C531.465,367.825 534.411,367.182 536.728,367.269C538.221,369.711 539.649,371.814 540.834,374.046C542.153,376.531 543.953,378.696 544.695,381.585C545.613,385.158 545.833,388.986 547.989,392.229C548.415,392.869 548.051,394.034 548.051,395.354C550.242,395.634 552.163,396.09 554.086,396.093C582.745,396.139 611.405,396.114 640.065,396.145C642.253,396.148 644.367,396.147 645.957,394.79C646.164,393.545 646.058,392.318 646.568,391.455C648.065,388.923 648.23,386.046 649.059,383.348C649.842,380.801 650.453,378.238 652.205,375.98C654.194,373.415 655.59,370.389 657.418,367.266C659.596,367.202 662.045,367.153 664.577,365.907C667.302,364.566 668.222,362.369 669.123,360.062C669.852,358.196 668.17,356.742 667.382,355.17C668.629,353.924 670.481,352.885 670.989,351.389C671.959,348.536 669.887,346.176 668.405,343.948" style="fill-rule:nonzero;"/>
    </g>
</svg>
