<?xml version="1.0" encoding="UTF-8" standalone="no"?>
<!DOCTYPE svg PUBLIC "-//W3C//DTD SVG 1.1//EN" "http://www.w3.org/Graphics/SVG/1.1/DTD/svg11.dtd">
<svg width="100%" height="100%" viewBox="0 0 105 101" version="1.1" xmlns="http://www.w3.org/2000/svg" xmlns:xlink="http://www.w3.org/1999/xlink" xml:space="preserve" style="fill-rule:evenodd;clip-rule:evenodd;stroke-linejoin:round;stroke-miterlimit:1.41421;">
    <g transform="matrix(1,0,0,1,-360.596,-131.866)">
        <path d="M440.485,178.396C439.301,176.601 437.979,174.811 436.386,173.393C434.476,171.693 432.276,170.282 430.074,168.956C428.046,167.736 425.972,166.71 423.573,166.052C420.451,165.194 417.409,165.369 414.318,165.244C412.556,165.245 410.769,165.431 409.039,165.194C407.222,164.945 405.775,165.902 404.142,166.194C397.942,167.305 393.603,171.571 389.51,175.666C385.174,180.006 382.906,185.945 380.06,191.383C376.697,197.809 374.761,204.45 374.812,211.862C374.845,216.691 375.993,220.836 378.327,224.887C382.598,232.297 391.212,235.025 399.025,230.075C401.103,228.759 402.925,227.012 404.753,225.34C406.642,223.612 408.328,221.661 410.224,219.941C412.507,217.868 414.064,217.478 416.214,219.179C418.27,220.805 420.727,221.816 422.279,224.369C424.374,227.813 428.203,229.849 431.738,231.475C438.899,234.77 446.438,230.736 449.592,224.768C452.877,218.553 452.863,218.546 452.863,211.707C452.863,210.425 452.761,209.134 452.883,207.864C453.156,205.026 452.233,202.376 451.315,199.85C448.566,192.284 444.92,185.124 440.485,178.396" style="fill-rule:nonzero;"/>
        <path d="M383.614,147.695C383.152,152.829 384.363,157.265 389.09,160.334C390.228,160.436 392.107,160.039 392.906,160.79C394.713,162.489 395.604,160.023 397.11,160.36C399.593,160.917 401.176,159.641 401.939,157.148C402.321,155.9 403.18,154.798 403.816,153.626C405.053,151.349 405.321,149.107 404.064,146.665C403.399,145.374 403.277,143.811 402.848,142.39C401.831,139.021 400.527,135.882 397.646,133.523C394.419,130.881 388.51,131.406 386.571,135.056C384.821,138.352 382.888,141.735 383.606,145.786C383.716,146.404 383.671,147.062 383.614,147.695" style="fill-rule:nonzero;"/>
        <path d="M422.483,159.542C425.53,161.065 428.51,160.402 431.551,160.084C432.113,160.025 432.784,159.798 433.166,159.412C436.422,156.127 440.742,153.378 439.209,147.648C440.612,143.478 438.052,140.214 436.403,136.938C434.323,132.807 428.844,132.335 425.36,135.54C420.209,140.279 417.91,146.182 418.226,153.165C418.363,156.201 419.698,158.15 422.483,159.542" style="fill-rule:nonzero;"/>
        <path d="M465.281,162.214C464.709,157.756 460.826,154.685 456.119,154.666C453.655,154.299 451.536,155.368 449.749,157.294C449.204,157.88 448.643,158.456 448.049,158.991C445.972,160.861 445.264,163.294 445.178,165.969C445.131,167.409 445.145,168.852 445.174,170.293C445.246,173.841 446.516,175.644 449.784,176.767C450.353,176.962 451.041,176.809 451.612,177C455.822,178.404 459.704,176.898 462.576,173.584C464.043,171.891 464.026,169.972 464.842,168.235C465.783,166.233 465.529,164.148 465.281,162.214" style="fill-rule:nonzero;"/>
        <path d="M379.08,176.958C379.415,176.737 379.723,176.22 379.748,175.821C380.012,171.617 379.712,167.509 377.051,163.983C375.368,161.751 373.58,159.597 371.953,157.552C370.029,157.552 368.408,157.386 366.841,157.607C365.704,157.767 364.229,158.126 363.613,158.936C361.243,162.05 361.755,166.094 360.596,169.627C362.17,170.606 361.167,172.257 361.512,173.243C364.118,176.347 366.687,179.054 370.894,178.963C372.375,180.663 373.628,178.955 375.016,178.782C376.63,178.58 377.835,177.779 379.08,176.958" style="fill-rule:nonzero;"/>
    </g>
</svg>
