<?xml version="1.0" encoding="UTF-8" standalone="no"?>
<!DOCTYPE svg PUBLIC "-//W3C//DTD SVG 1.1//EN" "http://www.w3.org/Graphics/SVG/1.1/DTD/svg11.dtd">
<svg width="100%" height="100%" viewBox="0 0 150 119" version="1.1" xmlns="http://www.w3.org/2000/svg" xmlns:xlink="http://www.w3.org/1999/xlink" xml:space="preserve" style="fill-rule:evenodd;clip-rule:evenodd;stroke-linejoin:round;stroke-miterlimit:1.41421;">
    <g transform="matrix(1,0,0,1,-123.962,-122.997)">
        <path d="M193.66,221.04C189.65,225.298 185.102,228.63 179.529,230.912C175.386,232.609 171.092,233.723 166.953,235.337C165.264,235.995 163.447,235.626 161.606,236.33C158.96,237.342 155.861,237.278 152.943,237.432C149.909,237.593 146.754,237.964 143.846,237.339C140.431,236.606 136.915,236.508 133.575,235.518C131.291,234.842 129.576,233.247 127.634,230.881C127.826,229.044 127.792,226.963 128.302,225.027C129.231,221.504 132.7,220.545 135.416,219.312C140.134,217.17 145.312,216.175 150.265,214.596C151.564,214.182 153.086,214.512 154.426,214.179C158.681,213.123 173.313,213.259 178.248,214.258C180.243,214.662 182.386,214.277 184.45,214.426C185.449,214.498 186.42,214.972 187.989,215.438C183.871,216.852 180.381,217.844 177.075,219.266C175.167,220.086 173.538,221.572 171.819,222.809C170.53,223.738 170.923,225.231 171.191,226.319C171.424,227.262 172.422,227.979 173.792,227.89C176.721,227.699 179.742,228.255 182.503,226.861C183.362,226.428 184.05,225.659 185.354,224.611C182.093,223.551 179.667,223.921 177.081,225.132C178.902,222.456 180.379,221.503 185.084,220.178C187.876,219.392 190.724,218.807 194.077,218.004C193.935,219.22 194.179,220.489 193.66,221.04M232.219,170.155C228.162,173.801 224.974,178.225 221.549,182.458C218.555,186.158 215.625,189.815 213.121,193.875C211.843,195.946 209.446,196.482 206.686,195.927L206.686,192.794C207.605,192.186 208.793,191.804 209.304,190.994C211.928,186.836 216.175,183.933 218.231,179.35C218.415,178.941 218.869,178.656 219.19,178.307C222.81,174.369 226.469,170.466 230.029,166.475C231.747,164.549 233.277,162.456 235.199,160.055C236.08,164.389 235.196,167.48 232.219,170.155M230.293,182.761C227.809,185.024 221.872,190.686 218.921,192.256C218.839,192.3 218.656,192.154 218.204,191.963C223.498,185.576 228.729,179.265 233.961,172.953C233.535,176.593 233.282,180.039 230.293,182.761M203.623,185.862C202.466,183.313 202.365,182.545 204.485,181.832C206.218,181.248 206.23,179.912 207.061,178.94C214.897,169.772 223.604,161.436 232.117,152.916C232.283,152.75 232.722,152.857 233.19,152.827C233.516,153.901 233.853,155.008 234.298,156.47C232.469,158.298 230.395,160.415 228.275,162.484C220.29,170.28 213.208,178.805 207.263,188.265C206.897,188.848 206.119,189.172 205.298,189.793C204.65,188.265 204.164,187.052 203.623,185.862M202.76,196.848C200.401,197.411 197.909,196.845 195.78,197.114C194.547,192.982 193.259,189.162 192.276,185.265C190.383,177.76 187.449,170.577 185.532,163.087C184.787,160.178 183.546,157.376 183.55,154.284C183.55,153.953 182.971,153.62 182.476,153.09C184.344,152.556 186.064,152.063 187.875,151.544C188.745,154.876 189.466,157.919 190.343,160.916C191.217,163.905 192.323,166.826 193.188,169.817C194.096,172.958 195.148,176.09 196.27,179.114C197.337,181.99 198.134,185.014 199.605,187.825C201.012,190.513 203.416,193.058 202.76,196.848M186.358,192.599C184.407,187.824 182.077,183.224 180.485,178.27C179.579,175.451 178.718,172.542 178.105,169.732C177.088,165.062 175.096,160.745 174.005,156.099C175.761,155.585 177.471,155.083 179.345,154.534C182.139,168.412 187.6,181.292 191.349,194.707C188.47,195.049 187.17,194.585 186.358,192.599M177.284,186.395C176.268,185.269 175.422,183.983 174.549,182.734C173.686,181.499 172.782,180.277 172.078,178.952C171.318,177.519 170.58,176.022 170.183,174.464C169.814,173.015 168.821,171.731 169.134,170.066C169.419,168.548 169.372,166.97 169.575,165.432C169.774,163.923 170.104,162.431 170.628,159.554C171.645,162.191 172.382,163.946 173.003,165.74C174.667,170.552 175.734,175.52 176.958,180.454C177.585,182.984 179.242,185.256 180.407,187.657C180.596,188.046 180.651,188.5 180.981,189.701C179.161,188.595 178.229,187.441 177.284,186.395M176.334,147.276C179.559,146.763 181.813,144.019 185.127,144.092C193.349,139.879 202.547,138.343 210.985,134.693C212.282,134.132 213.882,134.205 215.367,133.713C218.349,132.724 220.308,134.822 222.821,137.152C216.244,137.651 210.764,139.692 205.2,141.351C199.53,143.043 193.945,145.045 188.393,147.099C183.001,149.094 177.699,151.328 172.48,153.408C172.491,149.995 173.415,147.74 176.334,147.276M195.432,129.224C198.424,128.11 201.96,127.225 205.387,127.87C207.866,128.337 210.293,129.094 212.724,129.79C213.051,129.883 213.262,130.381 213.663,130.851C212.477,132.603 209.995,130.694 209.116,132.605C205.029,132.397 201.73,134.816 198.096,136.058C195.712,136.872 193.249,137.403 190.862,138.195C187.764,139.223 184.834,140.622 181.761,141.664C180.851,141.973 179.87,142.074 178.922,142.27C178.812,141.886 178.702,141.502 178.592,141.118C183.234,135.819 188.878,131.666 195.432,129.224M194.485,158.712C193.474,155.851 192.496,153.083 191.445,150.108C195.602,148.717 199.929,147.268 204.256,145.82C204.398,146.037 204.54,146.254 204.682,146.47C201.324,150.501 197.967,154.532 194.485,158.712M209.947,153.825C205.556,157.981 202.039,162.879 197.725,168.114C196.507,165.213 195.652,163.176 194.816,161.186C198.337,159.204 200.587,156.506 202.892,153.736C205.932,150.081 209.343,146.709 212.824,143.46C213.804,142.544 215.802,142.781 216.935,141.948C218.018,141.153 219.034,141.53 220.049,141.276C220.966,141.046 221.832,140.613 222.922,140.594C217.435,143.953 214.409,149.602 209.947,153.825M231.385,147.519C227.213,153.464 220.703,157.309 215.925,163.016C211.229,168.627 206.288,174.063 201.612,180.509C200.371,176.726 199.341,173.585 198.315,170.457C201.239,169.322 203.239,166.713 205.072,164.308C206.69,162.185 208.51,160.317 210.282,158.374C213.878,154.431 217.409,150.423 221.143,146.614C223.162,144.554 225.545,142.85 227.68,141.055C230.441,142.592 230.291,145.356 231.385,147.519M273.223,191.865C272.059,186.872 269.762,182.831 265.895,180.045C261.586,176.94 256.739,174.497 251.526,173.049C248.93,172.327 246.088,172.147 243.759,170.945C242.349,170.218 241.079,170.414 239.369,169.972L239.369,161.594C239.369,160.793 239.641,159.858 239.323,159.213C237.704,155.929 237.766,152.239 236.673,148.79C234.865,143.084 232.676,137.649 227.778,134.305C224.51,132.074 221.571,129.406 218.186,127.38C216.544,126.397 214.673,125.806 212.957,124.936C211.087,123.989 209.11,124.051 207.101,123.943C204.98,123.829 202.887,123.265 200.766,123.047C197.302,122.69 194.262,124.324 191.241,125.56C182.668,129.066 176.459,135.52 171.157,142.841C169.446,145.204 168.112,148.025 167.337,150.838C166.101,155.326 165.752,160.014 164.512,164.56C163.698,167.543 163.55,171.222 164.58,174.051C165.661,177.019 167.012,180.071 168.739,182.917C171.045,186.718 173.961,189.837 177.026,192.918C179.416,195.321 181.944,197.195 185.267,198.556C190.009,200.498 194.901,200.994 199.761,201.812C205.395,202.76 210.435,200.157 215.569,198.307C219.722,196.81 223.099,194.018 226.783,191.757C228.342,190.801 230.203,189.213 230.517,187.632C230.918,185.615 232.096,184.567 233.321,183.49C235.362,181.696 236.21,179.236 237.407,176.98C238.067,175.735 238.329,174.278 238.768,172.925C242.829,174.141 246.387,175.672 249.988,177.012C255.73,179.15 261.766,181.029 265.763,186.368C267.85,189.156 269.513,191.9 269.209,195.544C269.05,197.454 269.032,199.403 269.231,201.305C269.375,202.682 268.962,203.857 268.178,204.719C266.319,206.765 264.394,208.808 262.221,210.499C258.211,213.619 253.09,213.208 248.465,214.388C233.029,213.743 217.503,215.877 202.137,212.552C197.53,211.555 192.73,211.448 188.034,210.649C183.283,209.84 178.388,209.803 173.549,209.61C169.709,209.457 165.859,209.579 162.014,209.579C159.61,209.579 156.958,208.939 154.871,209.751C152.562,210.65 150.164,210.68 147.863,211.342C141.991,213.03 136.12,214.52 130.561,217.208C126.01,219.409 124.008,222.839 123.97,227.686C123.955,229.581 123.967,231.475 123.967,233.322C125.985,234.583 127.261,236.334 129.12,237.61C132.984,240.264 137.426,240.458 141.593,241.126C146.592,241.927 151.818,241.262 156.944,241.351C158.26,241.374 159.32,240.527 160.399,240.449C166.038,240.042 171.273,238.105 176.57,236.466C183.587,234.295 189.815,230.671 195.097,225.494C197.629,223.013 198.843,220.106 198.24,216.537C201.144,216.784 204.27,216.418 206.831,217.451C209.228,218.417 211.446,217.9 213.715,218.232C215.984,218.564 218.269,219.222 220.524,219.135C229.043,218.807 237.597,220.091 246.101,218.317C249.088,217.694 252.211,217.998 255.327,217.424C262.234,216.152 268.62,212.652 272.048,207.047C272.504,206.301 272.849,205.427 273.004,204.568C273.765,200.357 274.257,196.302 273.223,191.865" style="fill-rule:nonzero;"/>
    </g>
</svg>
