<?xml version="1.0" encoding="UTF-8" standalone="no"?>
<!DOCTYPE svg PUBLIC "-//W3C//DTD SVG 1.1//EN" "http://www.w3.org/Graphics/SVG/1.1/DTD/svg11.dtd">
<svg width="100%" height="100%" viewBox="0 0 130 66" version="1.1" xmlns="http://www.w3.org/2000/svg" xmlns:xlink="http://www.w3.org/1999/xlink" xml:space="preserve" style="fill-rule:evenodd;clip-rule:evenodd;stroke-linejoin:round;stroke-miterlimit:1.41421;">
    <g transform="matrix(1,0,0,1,-338.965,-476.69)">
        <path d="M463.978,512.791C464.074,514.198 462.679,517.694 461.73,518.995C459.897,518.063 458.071,517.134 455.818,515.988C455.236,517.001 454.604,518.1 454.024,519.108C454.951,521.806 454.083,525.128 454.42,528.313C450.842,529.604 447.379,530.821 443.874,528.347C443.264,526.385 446.381,526.107 445.813,523.915C445.386,522.266 445.729,520.417 445.729,518.657C445.729,512.098 445.687,505.538 445.76,498.98C445.777,497.491 445.134,495.842 446.629,494.509C446.933,494.237 446.681,492.909 446.283,492.36C444.926,490.487 443.388,488.745 441.727,486.718C446.51,485.196 450.558,484.713 454.946,487.214C457.256,488.53 458.044,490.497 459.087,492.285C461.102,495.737 463.324,499.27 463.039,503.589C464.777,506.507 463.768,509.715 463.978,512.791M433.392,500.048L433.392,494.66C434.754,493.23 436.178,491.734 437.802,490.028C438.539,490.609 439.246,491.152 439.937,491.715C440.673,492.315 441.392,492.934 442.036,493.476C440.82,498.159 437.38,499.225 433.392,500.048M440.163,525.88C434.72,528.563 429.054,530.678 423.304,532.581C422.907,532.713 422.405,532.524 421.523,532.447C421.948,531.355 422.175,530.381 422.669,529.568C425.238,525.339 425.94,520.686 425.441,515.913C425.251,514.092 423.994,512.39 423.274,510.613C422.942,509.795 422.732,508.927 422.327,507.637C429.464,508.095 435.34,504.897 441.882,502.3C441.882,509.828 441.842,516.374 441.913,522.918C441.929,524.373 441.424,525.258 440.163,525.88M411.108,496.06C408.511,494.416 405.617,495.162 402.852,495.13C394.841,495.039 386.826,495.172 378.815,495.064C375.227,495.016 371.881,496.234 368.459,496.655C363.062,497.319 359.137,499.997 355.248,503.257C354.704,503.712 353.34,503.813 352.73,503.449C350.793,502.295 348.252,501.883 347.078,499.749C346.26,498.264 343.706,498.768 343.752,496.392C343.799,493.951 344.949,491.726 346.395,490.336C348.851,487.975 351.35,485.291 354.977,484.53C357.03,484.099 358.725,482.853 360.866,482.395C363.177,481.902 365.414,481.652 367.722,481.643C373.652,481.618 379.583,481.711 385.51,481.612C390.996,481.521 396.415,480.046 401.937,480.695C403.896,480.925 406.077,479.771 407.829,481.598C407.972,481.748 408.706,481.474 409.069,481.245C410.831,480.133 413.088,480.183 414.476,480.932C416.251,481.889 417.846,481.416 419.497,481.612C424.797,482.243 429.751,483.771 434.318,486.718C429.526,491.346 428.551,493.626 428.112,498.758C427.469,498.501 426.821,498.014 426.177,498.019C421.058,498.063 416.241,495.843 411.108,496.06M360.064,509.534C361.304,509.463 362.552,509.523 363.888,509.523L363.888,532.35C356.451,530.734 349.035,529.255 342.896,524.803C342.502,520.848 344.199,517.465 343.86,513.803C343.537,510.312 343.79,506.768 343.79,503.155C345.07,502.585 345.107,504.106 345.849,504.391C346.538,504.657 347.229,504.98 347.827,505.407C351.495,508.02 355.424,509.798 360.064,509.534M405.054,524.058C408.914,525.512 412.816,524.341 417.092,525.186C416.638,526.637 416.348,528.066 415.756,529.358C414.415,532.283 412.022,534.451 409.564,536.306C408.683,536.971 406.867,538.757 405.005,536.76C404.46,536.175 402.911,536.465 401.821,536.461C396.39,536.438 390.959,536.45 385.335,536.45L385.335,506.638C391.633,506.638 397.851,506.595 404.067,506.674C405.354,506.69 407.237,507.816 407.803,507.296C409.29,505.929 410.02,507.585 411.037,507.541C412.33,507.484 413.173,507.983 413.852,508.915C415.461,511.123 417.09,513.322 418.571,515.614C418.936,516.178 418.767,517.087 418.853,517.928C413.011,518.937 407.063,516.905 401.575,519.341C401.597,523.234 401.755,522.815 405.054,524.058M466.572,521.758C467.887,517.551 469.333,513.307 468.825,508.741C468.484,505.673 467.352,502.688 467.834,499.529C467.85,499.422 467.636,499.296 467.587,499.159C465.89,494.366 463.586,489.836 460.713,485.691C458.78,482.902 455.52,481.252 452.26,480.79C447.352,480.096 442.406,480.547 438.038,483.776C434.493,480.992 430.224,479.904 426.083,478.98C421.339,477.921 416.641,476.318 411.57,476.768C404.359,477.407 397.127,476.501 389.841,477.599C383.733,478.519 377.375,477.695 371.131,477.827C368.053,477.893 365.024,477.861 361.872,478.529C357.952,479.36 354.462,480.666 350.986,482.532C346.842,484.755 343.229,487.311 341.596,491.972C341.305,492.802 340.881,493.744 340.224,494.253C339.029,495.178 338.96,496.295 338.965,497.615C338.997,507.216 338.982,516.817 338.982,526.541C339.947,527.268 340.862,528.144 341.933,528.735C348.124,532.149 354.559,534.9 361.717,535.474C363.019,535.578 363.969,536.292 363.92,537.424C363.823,539.663 365.679,540.142 366.809,541.899C367.783,540.463 368.489,539.421 369.735,537.585L369.735,505.555C368.61,503.707 367.948,502.621 367.186,501.369C366.288,502.964 363.967,501.858 363.987,503.991C364.011,506.492 362.849,506.621 360.878,505.725C360.113,505.377 359.098,505.578 357.682,505.501C361.308,503.42 363.812,500.503 367.777,500.419C369.147,500.39 370.575,500.282 371.868,499.871C376.315,498.457 380.849,497.889 385.498,497.976C394.238,498.138 402.945,497.698 411.653,499.71C416.18,500.756 420.849,501.672 425.562,502.252C422.878,502.903 420.175,503.752 417.513,503.637C414.713,503.515 411.824,502.786 409.222,501.717C407.538,501.025 405.973,500.883 404.289,500.874C400.925,500.855 397.556,500.743 394.2,500.903C390.802,501.065 387.413,501.47 384.028,501.849C382.684,502 380.994,501.092 380.07,502.642C379.323,503.896 378.858,505.347 378.449,506.763C378.235,507.502 378.411,508.354 378.411,509.154C378.411,518.284 378.462,527.413 378.372,536.542C378.351,538.621 378.698,540.48 379.84,542.21L411.59,542.21C414.061,539.719 416.628,537.293 420.492,537.164C421.883,535.391 424.282,537.487 425.696,535.807C430.575,534.905 434.677,531.921 439.433,530.671C441.316,532.699 443.523,533.792 446.405,533.603C449.116,533.426 451.848,533.539 454.57,533.587C455.148,533.597 456.19,533.81 456.225,534.047C456.581,536.459 459.104,535.774 460.299,536.994C461.128,537.839 462.134,537.504 463.235,536.83C465.289,535.572 467.365,531.217 466.535,528.915C465.661,526.493 465.794,524.248 466.572,521.758" style="fill-rule:nonzero;"/>
    </g>
</svg>
