<?xml version="1.0" encoding="UTF-8" standalone="no"?>
<!DOCTYPE svg PUBLIC "-//W3C//DTD SVG 1.1//EN" "http://www.w3.org/Graphics/SVG/1.1/DTD/svg11.dtd">
<svg width="100%" height="100%" viewBox="0 0 115 139" version="1.1" xmlns="http://www.w3.org/2000/svg" xmlns:xlink="http://www.w3.org/1999/xlink" xml:space="preserve" style="fill-rule:evenodd;clip-rule:evenodd;stroke-linejoin:round;stroke-miterlimit:1.41421;">
    <g transform="matrix(1,0,0,1,-372.455,-601.938)">
        <path d="M476.334,723.169C474.516,723.253 472.791,723.107 470.906,723.974C468.393,725.131 466.871,723.634 466.834,720.686C466.801,717.966 466.697,715.236 466.869,712.526C467.003,710.426 466.477,708.604 465.44,706.856C462.537,707.175 461.923,707.481 462.073,709.48C462.317,712.711 461.297,715.967 462.854,719.229C463.59,720.769 462.98,722.951 462.98,724.974C458.495,727.295 454.151,729.573 449.778,731.793C448.196,732.595 446.542,733.252 444.928,733.992C442.154,735.265 440.684,734.514 440.92,731.482C441.427,724.987 439.093,718.588 440.009,712.205C441.278,703.363 440.607,694.531 440.853,685.698C440.909,683.699 442.245,682.005 441.896,679.843C441.583,677.903 442.152,675.953 442.616,673.971C443.16,671.647 443.281,669.143 443.635,666.71C444.355,661.766 446.672,657.238 446.997,652.196C447.105,650.52 448.15,648.852 448.963,647.282C451.405,642.564 452.708,637.618 453.581,632.333C454.257,628.24 454.027,624.242 454.321,620.211C454.355,619.733 454.237,619.231 454.343,618.775C454.611,617.615 455.195,616.48 455.217,615.327C455.235,614.345 454.638,613.355 454.336,612.362C454.301,612.245 454.415,612.082 454.515,611.767L456.832,611.767C456.882,611.844 457.189,612.093 457.19,612.343C457.215,619.706 457.333,627.071 457.163,634.429C457.064,638.71 458.813,642.108 461.474,645.135C463.478,647.414 465.795,649.415 467.874,651.633C468.799,652.62 469.714,653.739 470.228,654.967C471.709,658.515 473.079,662.116 474.303,665.76C475.026,667.913 474.33,670.255 475.345,672.538C476.057,674.143 475.357,676.329 475.519,678.236C475.671,680.038 476.264,681.804 476.405,683.606C476.549,685.443 476.554,687.212 477.33,688.999C477.971,690.476 477.402,692.163 478.181,693.932C479.247,696.352 478.974,699.351 479.341,702.093C479.602,704.049 480.018,705.984 480.277,707.94C480.516,709.746 480.182,711.496 481.098,713.377C481.854,714.929 481.184,717.146 481.276,719.063C481.339,720.353 481.629,721.633 481.851,723.15C480.111,723.15 478.219,723.082 476.334,723.169M438.794,664.72C438.231,666.258 437.773,667.715 438.046,669.165C438.453,671.328 437.212,673.051 436.98,675.021C436.769,676.82 437.855,678.824 436.099,680.442C435.78,680.736 436.053,681.673 436.053,682.314C436.053,683.915 435.962,685.523 436.068,687.117C436.756,697.428 434.812,707.647 435.056,717.948C435.172,722.802 436.747,727.541 436.065,732.443C435.98,733.057 436.053,733.693 436.053,734.638C433.551,734.316 430.835,734.629 428.914,733.539C426.83,732.358 424.611,733.655 423.068,732.584C421.196,731.284 419.387,731.889 417.595,731.862C413.11,731.793 408.728,731.285 404.457,729.894C404.167,729.799 403.82,729.879 403.5,729.882C396.249,729.948 389.077,728.267 381.798,728.906C380.716,729.001 379.618,728.92 378.352,728.92C378.352,722.102 377.643,715.463 378.544,709.051C379.522,702.089 378.761,695.177 379.387,688.291C379.82,683.517 381.121,678.844 382.545,674.248C384.754,667.12 388.438,660.665 391.794,654.057C392.739,652.199 393.801,650.316 394.902,648.656C397.7,644.436 398.099,639.378 400.415,635.044C400.811,634.302 400.471,633.168 400.471,631.419C403.014,631.925 405.088,632.331 407.159,632.753C409.252,633.181 411.316,632.439 413.581,633.514C415.445,634.398 418.051,633.855 420.318,634.604C422.315,635.263 424.504,635.415 426.625,635.608C428.607,635.788 430.673,635.333 432.476,636.588C432.584,636.663 432.793,636.619 432.949,636.595C437.528,635.881 441.827,638.3 446.59,637.397C446.764,640.147 445.777,642.165 444.687,644.09C442.751,647.509 442.01,651.332 440.923,655.018C439.987,658.189 439.922,661.64 438.794,664.72M402.369,624.603C402.532,620.722 401.847,616.767 403.695,612.675C405.153,612.797 406.979,611.781 408.612,613.444C408.774,613.61 409.218,613.493 409.53,613.519C413.403,613.838 417.282,614.106 421.147,614.503C422.951,614.687 424.723,615.161 426.521,615.43C428.321,615.699 430.22,614.938 431.949,616.328C432.532,616.798 433.828,616.519 434.77,616.383C439.045,615.767 443.131,617.348 447.352,617.413C448.671,617.434 449.654,618.335 449.512,619.891C449.203,623.284 450.289,626.788 448.601,630.091C448.284,630.711 448.555,631.632 448.555,632.907C445.71,632.192 442.879,633.848 440.275,631.821C439.976,631.588 439.336,631.82 438.858,631.785C434.664,631.473 430.466,631.202 426.28,630.8C424.794,630.657 423.341,630.174 421.869,629.87C420.242,629.534 418.614,629.2 416.979,628.912C415.492,628.651 413.773,629.538 412.548,627.999C409.512,627.98 406.472,628.032 403.44,627.903C402.446,627.86 401.473,627.348 400.053,626.918C401.236,625.736 401.802,625.169 402.369,624.603M416.272,606.96C418.883,607.365 421.464,607.536 424.069,607.788C426.664,608.038 429.377,608.285 431.798,608.901C435.577,609.864 439.275,609.333 442.982,609.7C445.518,609.952 448.025,610.482 450.977,610.957C449.871,612.506 449.695,614.594 447.413,612.873C447.187,612.702 446.846,612.536 446.589,612.574C442.157,613.24 437.912,611.18 433.53,611.643C431.264,611.882 429.312,610.896 427.193,610.637C425.073,610.377 422.792,611.31 420.835,609.704C420.548,609.468 419.899,609.697 419.42,609.667C414.425,609.353 409.428,609.06 404.44,608.657C403.993,608.621 403.606,607.848 402.583,606.786C407.741,606.786 412.094,606.311 416.272,606.96M486.134,720.034C486.592,715.125 485.252,710.38 485.062,705.536C484.936,702.299 485.057,698.845 483.936,695.923C483.131,693.826 484.022,691.622 483.037,690.088C482.021,688.507 482.477,687.076 482.209,685.595C481.912,683.962 481.236,682.32 481.317,680.712C481.54,676.298 479.555,672.086 480.279,667.655C480.325,667.369 480.277,667.012 480.141,666.76C478.504,663.742 479.027,659.887 476.444,657.241C475.558,652.167 472.667,648.329 468.961,644.962C467.541,643.671 466.083,642.372 464.925,640.859C464.045,639.71 463.001,638.18 463.081,636.885C463.545,629.436 461.882,622.113 462.015,614.7C462.041,613.259 462.041,611.817 462.013,610.377C461.983,608.848 461.905,607.321 461.847,605.768C459.538,606.147 457.597,606.618 455.636,606.721C454.668,606.773 453.662,605.864 452.676,605.871C447.337,605.906 442.13,604.462 436.735,604.739C433.887,604.885 430.999,603.531 428.013,603.901C426.125,602.127 423.795,603.263 421.686,602.94C419.578,602.616 417.477,602.107 415.358,602.02C411.682,601.868 407.994,601.97 404.312,601.992C404.038,601.994 403.766,602.206 403.075,602.494C402.81,603.345 402.459,604.47 402.084,605.673C401.387,605.755 400.63,605.845 399.88,605.933C398.587,607.642 398.427,609.593 398.532,611.636C398.605,613.069 399.016,614.758 398.433,615.903C396.456,619.786 398.03,623.187 399.274,626.71C398.77,626.919 397.775,627.1 397.747,627.379C397.517,629.669 395.972,631.6 395.755,633.752C395.307,638.209 393.154,642.015 391.456,645.928C389.634,650.128 386.24,653.579 385.084,658.182C381.184,662.544 379.557,668.087 377.776,673.399C375.906,678.977 374.274,684.679 374.401,690.791C374.508,695.926 375.158,701.106 373.669,706.278C372.945,708.791 373.488,711.687 373.56,714.407C373.629,717.056 372.178,719.425 372.502,722.185C372.855,725.186 372.582,728.26 372.582,731.338C373.366,732.101 374.167,732.882 374.78,733.48C382.181,733.89 389.406,734.251 396.625,734.706C400.181,734.931 403.849,734.887 407.231,735.819C409.243,736.373 411.151,736.411 413.121,736.635C415.081,736.857 417.043,737.616 418.965,737.497C422.605,737.272 426.084,738.081 429.617,738.559C430.944,738.739 432.226,739.228 433.547,739.484C434.875,739.741 436.134,739.532 437.567,740.267C439.088,741.048 441.315,740.454 443.234,740.46C444.693,738.149 447.478,738.324 449.555,737.145C454.07,734.584 458.759,732.328 463.387,729.968C464.175,729.565 465.087,728.862 465.822,728.989C469.184,729.571 472.229,727.751 475.525,727.932C477.916,728.064 480.32,727.958 482.318,727.958C484.061,726.354 485.583,724.954 487.265,723.406C486.859,722.267 486.034,721.108 486.134,720.034" style="fill-rule:nonzero;"/>
    </g>
</svg>
