<?xml version="1.0" encoding="UTF-8" standalone="no"?>
<!DOCTYPE svg PUBLIC "-//W3C//DTD SVG 1.1//EN" "http://www.w3.org/Graphics/SVG/1.1/DTD/svg11.dtd">
<svg width="100%" height="100%" viewBox="0 0 124 93" version="1.1" xmlns="http://www.w3.org/2000/svg" xmlns:xlink="http://www.w3.org/1999/xlink" xml:space="preserve" style="fill-rule:evenodd;clip-rule:evenodd;stroke-linejoin:round;stroke-miterlimit:1.41421;">
    <g transform="matrix(1,0,0,1,-326.494,-324.541)">
        <path d="M446.222,352.664C445.819,354.685 445.498,356.541 443.964,358.003C443.384,358.556 442.84,359.146 442.26,359.699C437.538,364.204 434.672,369.809 432.652,375.912C431.657,378.918 430.607,381.865 427.366,383.261C426.142,383.788 424.985,384.751 423.733,384.878C421.139,385.142 418.625,385.858 416.087,386.297C411.549,387.083 406.929,386.413 402.542,387.243C394.478,388.769 386.429,387.581 378.395,388.067C373.954,386.72 369.331,387.561 364.868,386.98C360.805,386.451 356.604,386.168 352.71,385.035C348.637,383.85 345.124,380.981 344.275,376.533C343.344,371.648 340.556,367.728 338.243,363.649C336.569,360.697 333.404,358.59 330.711,355.914C330.711,355.526 330.741,355.359 330.706,355.207C329.797,351.185 331.815,347.784 334.02,345.093C337.324,341.058 340.888,336.998 346.16,335.15C349.704,333.907 352.971,332.149 356.991,332.111C359.342,332.089 361.978,331.802 364.234,331.148C366.575,330.469 368.974,330.996 371.069,330.278C379.824,327.279 388.821,328.83 397.709,328.495C399.164,328.44 400.633,329.172 402.118,329.388C407.445,330.162 412.701,331.53 418.146,331.327C420.218,333.454 423.193,331.471 425.606,333.129C427.6,334.498 430.249,334.939 432.526,336.084C437.577,338.625 441.213,342.626 444.061,347.267C444.988,348.778 446.715,350.191 446.222,352.664M439.41,375.226C439.233,376.585 439.701,378.074 438.419,379.147C438.931,381.685 437.837,384.012 437.453,386.432C436.655,391.461 434.736,395.981 431.122,399.643C430.289,400.487 429.198,401.121 428.138,401.686C424.865,403.432 421.478,404.974 418.27,406.829C415.148,408.634 411.402,408.81 408.403,410.856C408.167,411.017 407.852,411.112 407.564,411.139C399.831,411.846 392.203,413.82 384.348,413.074C382.531,412.901 380.752,413.282 378.923,412.211C377.431,411.338 375.149,412.962 373.585,411.227C369.242,411.943 365.674,409.467 361.879,408.167C358.121,406.879 354.674,404.712 351.013,403.11C343.509,399.828 340.643,393.508 339.335,385.996C338.603,381.789 337.536,377.656 337.327,373.345C337.278,372.32 335.953,371.332 336.9,369.756C339.282,371.863 339.575,374.673 340.296,377.234C342.302,384.356 348.893,388.651 354.527,389.043C356.654,389.192 358.591,390.363 360.86,390.036C363.161,389.705 365.217,391.385 367.669,391.02C369.862,390.694 372.326,390.397 374.344,391.069C378.391,392.416 382.435,391.742 386.472,391.882C390.63,392.025 394.908,392.508 398.928,391.751C403.162,390.953 407.404,391.554 411.507,390.835C416.559,389.949 421.717,389.631 426.678,388.122C429.071,387.394 430.651,385.806 432.223,384.129C433.669,382.584 435.469,381.469 435.773,378.845C436.071,376.274 437.453,373.819 438.449,371.349C438.67,370.799 439.266,370.401 439.859,369.746C440.053,370.177 440.365,370.527 440.314,370.813C440.054,372.292 439.603,373.741 439.41,375.226M449.031,349.152C448.124,346.457 445.224,341.802 443.621,339.851C440.107,335.574 435.596,332.63 430.527,330.844C428.174,330.014 426.089,328.397 423.345,328.372C419.791,328.34 416.13,328.228 412.728,327.338C410.247,326.689 407.602,327.229 405.471,326.349C403.161,325.395 400.573,326.075 398.509,324.596L378.327,324.596C378.007,324.596 377.516,324.461 377.392,324.616C376.023,326.345 373.803,324.795 372.572,325.704C370.889,326.947 369.238,326.277 367.59,326.51C366.971,326.598 366.077,326.333 365.756,326.663C364.25,328.211 362.418,327.153 360.782,327.48C359.154,327.805 357.535,328.306 355.893,328.4C353.275,328.549 350.557,328.092 348.517,330.351C338.917,334.05 338.832,333.971 333.617,339.561C331.551,341.776 329.334,344.193 328.291,346.938C326.88,350.652 324.928,354.796 328.609,358.621C329.518,359.566 330.278,360.824 330.653,362.074C331.301,364.232 331.574,366.5 332.041,368.714C332.537,371.067 333.439,373.402 333.494,375.76C333.549,378.122 334.072,380.332 334.588,382.56C335.339,385.801 335.281,389.189 336.476,392.343C338.333,397.244 340.843,401.389 345.437,404.554C350.687,408.172 356.596,410.203 362.201,412.921C363.724,413.66 365.476,414.762 367.107,414.88C372.179,415.248 377.018,417.174 382.159,416.933C384.237,416.836 386.323,416.917 388.405,416.917C391.128,416.917 393.858,417.042 396.572,416.881C399.172,416.727 401.888,416.665 404.302,415.834C406.275,415.154 408.367,415.541 410.119,414.817C416.545,412.158 423.031,409.534 429.127,406.221C433.414,403.892 436.841,400.375 439.118,395.699C441.105,391.621 441.003,387.212 442.241,383.053C442.713,381.469 443.223,379.791 443.167,378.175C443.015,373.803 444.654,369.752 445.339,365.546C445.687,363.412 446.463,361.008 447.966,358.971C450.586,355.423 450.565,353.711 449.031,349.152" style="fill-rule:nonzero;"/>
    </g>
</svg>
