<?xml version="1.0" encoding="UTF-8" standalone="no"?>
<!DOCTYPE svg PUBLIC "-//W3C//DTD SVG 1.1//EN" "http://www.w3.org/Graphics/SVG/1.1/DTD/svg11.dtd">
<svg width="100%" height="100%" viewBox="0 0 77 143" version="1.1" xmlns="http://www.w3.org/2000/svg" xmlns:xlink="http://www.w3.org/1999/xlink" xml:space="preserve" style="fill-rule:evenodd;clip-rule:evenodd;stroke-linejoin:round;stroke-miterlimit:1.41421;">
    <g transform="matrix(1,0,0,1,-574.487,-438.192)">
        <path d="M634.246,568.506C633.525,571.9 631.248,572.96 628.026,574.016C623.166,575.61 618.388,576.756 613.297,576.713C609.773,576.684 606.248,576.723 602.724,576.704C597.653,576.677 592.928,575.006 588.215,573.436C585.384,572.494 584.036,570.56 584.186,565.92C584.311,562.08 584.211,558.231 584.211,554.387L584.211,551.829C587.577,553.317 590.688,554.883 593.939,556.063C596.043,556.826 598.341,557.34 600.569,557.412C606.331,557.597 612.102,557.464 617.869,557.478C620.652,557.485 623.18,556.421 625.708,555.509C628.489,554.505 631.152,553.177 634.219,551.836C634.219,556.512 634.381,560.99 634.102,565.439C634.034,566.516 636.188,567.469 634.246,568.506M584.268,511.189C585.251,512.003 585.971,512.651 586.745,513.228C587.592,513.86 588.44,514.522 589.377,514.995C590.295,515.459 591.316,515.729 592.307,516.036C595.335,516.973 598.303,518.114 601.568,518.063C606.213,517.991 610.86,517.998 615.505,518.056C622.462,518.141 628.429,515.574 634.022,511.347L634.022,523.562C632.204,524.51 630.115,525.625 628.002,526.695C625.008,528.211 620.666,529.048 618.168,529.672C613.976,530.721 609.736,530.912 605.58,530.448C599.639,529.784 593.515,529.377 588.333,525.744C587.722,525.315 587.062,524.952 586.413,524.58C585.771,524.211 585.113,523.868 584.268,523.408L584.268,511.189ZM586.924,496.505C587.792,495.733 589.139,495.151 589.117,493.553C589.115,493.391 590.49,493.274 591.183,493.02C591.671,492.841 592.086,492.463 592.787,492.01L592.787,497.317C600.038,503.367 618.423,503.355 625.649,497.311L625.649,492.251C627.683,492.922 629.351,493.638 630.526,495.487C631.574,497.136 633.618,498.112 633.556,500.512C633.533,501.369 634.35,502.342 634.14,503.079C633.741,504.481 633.069,505.899 632.172,507.046C629.305,510.71 625.158,512.11 620.834,513.267C614.283,515.021 607.575,514.518 601.062,513.973C595.979,513.547 590.786,511.945 586.834,507.808C583.984,504.826 583.653,499.418 586.924,496.505M620.728,479.93L620.728,495.594C613.191,498.826 605.568,498.665 597.787,495.74L597.787,480.43C598.689,481.213 599.319,482.131 600.152,482.388C601.173,482.702 602.363,482.463 603.48,482.463C607.63,482.463 611.789,482.294 615.924,482.535C617.903,482.651 619.155,481.893 620.728,479.93M601.68,468.037L616.737,468.037C618.069,469.788 619.537,471.716 620.87,473.467C619.505,477.548 616.865,478.918 613.051,478.65C610.514,478.471 607.946,478.475 605.409,478.649C601.611,478.909 598.871,477.692 597.637,473.384C598.883,471.736 600.346,469.802 601.68,468.037M633.964,527.902C633.875,527.841 633.909,527.855 633.964,527.902M634.219,548.754C628.964,550.381 623.821,552.706 618.46,553.44C612.49,554.257 606.294,553.991 600.249,553.52C594.745,553.091 589.76,550.341 584.38,548.637L584.38,527.684C589.104,531.174 594.114,533.081 599.855,533.539C603.4,533.822 606.91,534.458 610.508,534.429C615.617,534.387 620.61,533.383 625.523,532.32C628.459,531.685 631.078,529.58 634.057,528.01C634.135,528.109 634.21,528.224 634.21,528.331C634.22,535.038 634.219,541.745 634.219,548.754M630.925,490.319C629.406,489.166 628.27,489.368 626.045,490.156C625.931,490.043 625.721,489.932 625.719,489.816C625.654,486.794 625.401,483.758 625.616,480.755C625.9,476.776 624.254,473.368 623.025,469.799C622.15,467.258 619.834,466.041 618.425,464.231L600.039,464.231C598.64,465.63 597.254,466.963 595.946,468.367C595.677,468.656 595.746,469.233 595.577,469.644C594.137,473.138 592.592,476.567 592.829,480.528C593.017,483.677 592.867,486.847 592.867,490.593C590.521,489.14 588.672,489.076 586.917,490.756C585.952,491.679 584.694,492.298 583.558,493.039C580.779,494.853 579.406,497.271 579.405,500.461C579.401,520.789 579.398,541.117 579.411,561.445C579.412,563.75 579.743,565.979 580.205,568.281C581.08,572.647 583.107,575.781 587.195,577.209C592.022,578.895 596.822,580.833 602.141,580.588C605.975,580.412 609.847,580.278 613.658,580.618C619.657,581.153 625.148,579.237 630.697,577.604C632.311,577.128 633.92,576.093 635.118,574.9C636.361,573.66 637.424,572.026 637.983,570.368C638.653,568.378 638.979,566.18 638.985,564.071C639.054,542.623 639.023,521.174 639.037,499.726C639.038,498.277 638.357,497.191 637.786,495.914C636.368,492.743 633.249,492.084 630.925,490.319" style="fill-rule:nonzero;"/>
        <path d="M583.045,463.544C582.355,463.006 581.493,462.689 580.711,462.267C578.238,460.931 577.646,460.059 578.886,457.666C579.607,456.274 578.888,454.053 581.687,453.408C583.583,452.97 585.003,452.139 586.708,453.579C586.987,453.815 587.646,453.553 588.114,453.622C590.369,453.956 590.842,454.415 590.934,456.415C590.985,457.529 590.943,458.648 590.943,459.881C589.454,461.072 588.385,462.771 586.371,463.605C585.079,464.14 584.201,464.446 583.045,463.544M585.754,467.896C590.563,466.778 595.553,463.209 594.79,457.599C594.79,457.281 594.794,456.962 594.79,456.643C594.734,452.099 593.11,450.269 588.699,449.762C588.249,449.711 587.73,449.74 587.368,449.523C585.324,448.299 583.324,448.581 581.203,449.367C579.058,450.161 577.441,451.446 576.247,453.383C574.636,455.993 574.097,458.938 574.771,461.744C575.045,462.886 575.699,464.619 577.834,465.338C580.469,466.225 583.007,468.534 585.754,467.896" style="fill-rule:nonzero;"/>
        <path d="M598.565,450.057C600.094,450.885 601.92,451.588 603.612,451.576C605.476,451.563 607.203,450.795 608.338,448.756C609.605,446.481 608.961,444.206 609.298,441.666C604.164,436.764 602.051,436.979 596.713,442.76C596.713,444.035 596.91,445.348 596.666,446.574C596.308,448.376 597.412,449.433 598.565,450.057" style="fill-rule:nonzero;"/>
        <path d="M650.529,479.058C650.072,478.601 649.677,478.066 649.159,477.713C647.112,476.317 644.858,475.358 642.354,475.821C640.564,476.152 639.161,478.114 638.347,480.738C637.479,483.537 638.763,486.303 641.447,487.25C642.151,487.498 642.978,487.389 643.687,487.628C646.742,488.657 648.352,487.55 649.702,484.42C650.491,482.591 650.568,480.888 650.529,479.058" style="fill-rule:nonzero;"/>
    </g>
</svg>
